<?xml version="1.0" standalone="no"?><svg xmlns="http://www.w3.org/2000/svg" viewBox="0 0 1440 320"><path fill="#ffffff" fill-opacity="1" d="M0,256L34.3,229.3C68.6,203,137,149,206,144C274.3,139,343,181,411,181.3C480,181,549,139,617,138.7C685.7,139,754,181,823,218.7C891.4,256,960,288,1029,293.3C1097.1,299,1166,277,1234,229.3C1302.9,181,1371,107,1406,69.3L1440,32L1440,320L1405.7,320C1371.4,320,1303,320,1234,320C1165.7,320,1097,320,1029,320C960,320,891,320,823,320C754.3,320,686,320,617,320C548.6,320,480,320,411,320C342.9,320,274,320,206,320C137.1,320,69,320,34,320L0,320Z"></path></svg>